<svg aria-hidden="true" viewBox="0 0 64 64" height="1em" width="1em">
    <defs>
        <linearGradient id="clever_svg__a" x1="0%" x2="100%" y1="0%" y2="100%">
            <stop offset="0%" stop-color="#4B78EE"/>
            <stop offset="100%" stop-color="#4242F5"/>
        </linearGradient>
    </defs>
    <g fill="none" transform="translate(3 3)">
        <rect width="58" height="58" fill="url(#clever_svg__a)" rx="6"/>
        <path fill="#FFF" d="M30.654 48.394c-11.361 0-19.779-8.759-19.779-19.828v-.098c0-10.972 8.272-19.95 20.12-19.95 7.274 0 11.63 2.434 15.206 5.961l-5.402 6.18c-2.968-2.7-6.009-4.355-9.853-4.355-6.495 0-11.191 5.401-11.191 12.018v.122c0 6.618 4.574 12.116 11.191 12.116 4.404 0 7.104-1.752 10.145-4.525l5.401 5.45c-3.99 4.257-8.393 6.909-15.838 6.909"/>
    </g>
</svg>
