<svg aria-hidden="true" viewBox="0 0 64 64" fill="currentColor" height="1em" width="1em">
    <path d="M32 14.48c4.278 0 8.108 1.473 11.129 4.35l8.277-8.278C46.379 5.876 39.818 3 32 3 20.666 3 10.866 9.5 6.093 18.974l9.643 7.48c2.284-6.876 8.7-11.975 16.264-11.975zm27.767 18.185c0-1.898-.18-3.734-.459-5.498H32v10.899h15.636c-.701 3.576-2.731 6.621-5.776 8.676l9.34 7.25c5.45-5.051 8.567-12.519 8.567-21.327zm-44.043 4.881A17.616 17.616 0 0114.805 32c0-1.933.327-3.794.919-5.546l-9.643-7.48A28.896 28.896 0 003 32a28.76 28.76 0 003.093 13.026l9.63-7.48z"/>
    <path d="M32 61c7.83 0 14.415-2.574 19.2-7.02l-9.34-7.25c-2.598 1.752-5.945 2.779-9.86 2.779-7.564 0-13.98-5.1-16.276-11.975l-9.643 7.48C10.866 54.499 20.666 61 32 61z"/>
</svg>
