<svg xmlns:xlink="http://www.w3.org/1999/xlink" aria-hidden="true" viewBox="0 0 64 64" fill="currentColor" height="1em" width="1em">
    <defs>
        <path id="dragger_svg__a" d="M22.093 44.814a8.093 8.093 0 110 16.186 8.093 8.093 0 010-16.186zm19.558 0a8.093 8.093 0 110 16.186 8.093 8.093 0 010-16.186zM22.093 23.907a8.093 8.093 0 110 16.186 8.093 8.093 0 010-16.186zm19.558 0a8.093 8.093 0 110 16.186 8.093 8.093 0 010-16.186zM22.093 3a8.093 8.093 0 110 16.186 8.093 8.093 0 010-16.186zm19.558 0a8.093 8.093 0 110 16.186 8.093 8.093 0 010-16.186z"/>
    </defs>
    <use xlink:href="#dragger_svg__a"/>
</svg>
