<svg xmlns="http://www.w3.org/2000/svg" aria-hidden="true" viewBox="0 0 64 64" fill="currentColor" height="1em" width="1em">
    <title>
        gain
    </title>
    <path d="M32 10c13.807 0 25 11.193 25 25S45.807 60 32 60 7 48.807 7 35s11.193-25 25-25zm0 4c-11.598 0-21 9.402-21 21s9.402 21 21 21 21-9.402 21-21-9.402-21-21-21zM9.483 48a2 2 0 11-3.464 2 2 2 0 013.464-2zm47.766-.732a2 2 0 11-2 3.464 2 2 0 012-3.464zM32 20c8.284 0 15 6.716 15 15 0 8.284-6.716 15-15 15-8.284 0-15-6.716-15-15 0-8.284 6.716-15 15-15zm28 13a2 2 0 110 4 2 2 0 010-4zM4 33a2 2 0 110 4 2 2 0 010-4zm34.388-6.02l-.133.095-3.152 2.463a2 2 0 002.329 3.248l.133-.096 3.152-2.463a2 2 0 00-2.329-3.248zM57.981 20a2 2 0 11-3.464 2 2 2 0 013.464-2zm-49.23-.732a2 2 0 11-2 3.464 2 2 0 012-3.464zM47 9.019a2 2 0 11-2 3.464 2 2 0 012-3.464zm-27.268.732a2 2 0 11-3.464 2 2 2 0 013.464-2zM32 5a2 2 0 110 4 2 2 0 010-4z"/>
</svg>
