<svg xmlns:xlink="http://www.w3.org/1999/xlink" aria-hidden="true" viewBox="0 0 64 64" fill="currentColor" height="1em" width="1em">
    <defs>
        <path id="left-right_svg__a" d="M55.304 30.673L41.347 18.558a.317.317 0 01.207-.558h3.527a.64.64 0 01.419.155l15.06 13.068a1.274 1.274 0 010 1.925L45.413 46.296a.314.314 0 01-.207.08h-3.647a.317.317 0 01-.207-.558l13.953-12.116H8.696L22.65 45.818a.317.317 0 01-.207.558h-3.647a.314.314 0 01-.207-.08L3.439 33.148a1.274 1.274 0 010-1.925L18.5 18.155a.64.64 0 01.42-.155h3.527c.295 0 .43.363.207.558L8.696 30.673h46.608z"/>
    </defs>
    <use xlink:href="#left-right_svg__a"/>
</svg>
