<svg xmlns="http://www.w3.org/2000/svg" aria-hidden="true" viewBox="0 0 64 64" fill="currentColor" height="1em" width="1em">
    <title>
        metronome
    </title>
    <path d="M43.084 7a.9.9 0 01.886.74l8.758 48.2a.9.9 0 01-.885 1.06H17.996a.9.9 0 01-.886-1.058l4.47-25.072 3.03 3.972-1.013 5.518h7.734L8.205 10.027a1 1 0 01.189-1.402l1.59-1.212a1 1 0 011.402.188L36.36 40.36h10.163l-5.6-29.952a.5.5 0 00-.491-.408h-10.85a.5.5 0 00-.492.41l-2.53 13.797-3.074-4.032 2.216-12.433A.9.9 0 0126.589 7h16.495zm4.188 37.36H22.864l-1.66 9.05a.5.5 0 00.492.59h26.777a.5.5 0 00.491-.592l-1.692-9.048z"/>
</svg>
