<svg aria-hidden="true" viewBox="0 0 64 64" fill="currentColor" height="1em" width="1em">
    <path d="M23 4a2 2 0 011.995 1.85L25 6v30c0 1.288.607 1.954 1.822 1.998L27 38h10c1.202 0 1.864-.605 1.986-1.814L39 36V6a2 2 0 011.85-1.995L41 4h1a2 2 0 011.995 1.85L44 6v30c0 4.575-2.563 6.908-7.69 6.997L36 43v15a2 2 0 01-1.85 1.995L34 60h-4a2 2 0 01-1.995-1.85L28 58V43c-5.229 0-7.894-2.243-7.997-6.728L20 36V6a2 2 0 011.85-1.995L22 4h1zm32.875 3.625c5.457 10.278 5.457 20.69.002 31.145a.8.8 0 11-1.418-.74c5.212-9.99 5.212-19.844.003-29.655a.8.8 0 011.413-.75zM9.207 7.293a.8.8 0 01.331 1.082c-5.209 9.81-5.209 19.666.003 29.655a.8.8 0 11-1.419.74c-5.454-10.455-5.454-20.867.003-31.145a.8.8 0 011.082-.332zm43.466 3.528c4.393 8.166 4.393 16.448.002 24.753a.8.8 0 01-1.414-.748c4.142-7.835 4.142-15.553.003-23.247a.8.8 0 111.409-.758zm-40.262-.325a.8.8 0 01.325 1.083c-4.14 7.694-4.14 15.412.003 23.247a.8.8 0 11-1.415.748c-4.39-8.305-4.39-16.587.003-24.753a.8.8 0 011.084-.325zm37.307 2.724c3.28 6.67 3.28 13.434.002 20.217a.8.8 0 01-1.44-.696c3.064-6.342 3.064-12.589.002-18.815a.8.8 0 011.436-.706zm-34.365-.365a.8.8 0 01.365 1.07c-3.062 6.227-3.062 12.474.002 18.816a.8.8 0 01-1.44.696c-3.278-6.783-3.278-13.547.002-20.217a.8.8 0 011.07-.365z"/>
</svg>
